<svg id="Слой_1" data-name="Слой 1" xmlns="http://www.w3.org/2000/svg" viewBox="0 0 16 16"><defs><style>.cls-1{fill:#fff}</style></defs><path class="cls-1" d="M7.31 9.06l-.08.07-1.43 1.46a1.24 1.24 0 0 0-.23.32 1.17 1.17 0 0 0 1.14 1.7 1.2 1.2 0 0 0 .79-.37l1.85-1.86 1.72-1.72a1 1 0 0 0 .19-.27 1.14 1.14 0 0 0-.09-1.18c-.14-.17-.29-.32-.44-.48L7.34 3.34a1.12 1.12 0 0 0-1-.28 1.08 1.08 0 0 0-.7.41 1.11 1.11 0 0 0-.27.67 1.18 1.18 0 0 0 .39 1l1.5 1.5.08.08H2.1a1.21 1.21 0 0 0-.72.42 1.17 1.17 0 0 0-.24 1 1.14 1.14 0 0 0 .39.62 1.11 1.11 0 0 0 .78.29h5zM12.51 8v3.93a.59.59 0 0 1-.26.5.67.67 0 0 1-.41.11h-1.27a1.2 1.2 0 0 0-.66.42 1.17 1.17 0 0 0 .18 1.65 1.09 1.09 0 0 0 .69.24H12.42a2.41 2.41 0 0 0 .73-.24 2.82 2.82 0 0 0 .62-.42 2.94 2.94 0 0 0 .71-.86 2.82 2.82 0 0 0 .35-1.42V3.73a2.59 2.59 0 0 0-.26-.9 3.05 3.05 0 0 0-.88-1.07 2.87 2.87 0 0 0-1.78-.62h-1.29a1.19 1.19 0 0 0-.65.37 1.14 1.14 0 0 0-.13 1.4 1.14 1.14 0 0 0 1 .56H12a.63.63 0 0 1 .55.56V8z"/><path class="cls-1" d="M7.31 9.06h-5a1.11 1.11 0 0 1-.78-.29 1.14 1.14 0 0 1-.39-.62 1.17 1.17 0 0 1 .24-1 1.22 1.22 0 0 1 .72-.45h5.24l-.08-.08-1.5-1.5a1.18 1.18 0 0 1-.39-1 1.11 1.11 0 0 1 .27-.67 1.08 1.08 0 0 1 .7-.45 1.12 1.12 0 0 1 1 .28l3.39 3.42c.15.15.3.31.44.48a1.14 1.14 0 0 1 .09 1.18 1 1 0 0 1-.19.27l-1.72 1.75-1.84 1.86a1.2 1.2 0 0 1-.79.37 1.17 1.17 0 0 1-1.14-1.7 1.24 1.24 0 0 1 .23-.32l1.43-1.44.08-.07z"/><path class="cls-1" d="M12.51 8V4.06a.63.63 0 0 0-.51-.57h-1.18a1.14 1.14 0 0 1-1-.56 1.13 1.13 0 0 1-.18-.67 1.12 1.12 0 0 1 .36-.75 1.19 1.19 0 0 1 .65-.37H12a2.87 2.87 0 0 1 1.78.62 3 3 0 0 1 .85 1 2.59 2.59 0 0 1 .26.9v8.2a2.82 2.82 0 0 1-.35 1.42 2.94 2.94 0 0 1-.71.86 2.82 2.82 0 0 1-.62.42 2.41 2.41 0 0 1-.73.24h-1.67a1.09 1.09 0 0 1-.69-.24A1.16 1.16 0 0 1 9.91 13a1.2 1.2 0 0 1 .66-.42h1.27a.67.67 0 0 0 .41-.11.59.59 0 0 0 .26-.5V8z"/></svg>