<svg id="Слой_1" data-name="Слой 1" xmlns="http://www.w3.org/2000/svg" viewBox="0 0 20 20"><defs><style>.cls-1{fill:#fff;}.cls-2{fill:none;stroke:#000;stroke-width:2px;}</style></defs><title>2Монтажная область 1</title><rect class="cls-1" width="20" height="20"/><path class="cls-2" d="M1,1H19V19H1Z"/><path d="M15.12,6a.4.4,0,0,1,0,.57h0L12,9.71a.4.4,0,0,0,0,.57h0l3.14,3.14a.4.4,0,0,1,0,.57h0L14,15.13a.42.42,0,0,1-.57,0L10.27,12a.42.42,0,0,0-.57,0L6.56,15.12a.42.42,0,0,1-.57,0L4.85,14a.4.4,0,0,1,0-.57h0L8,10.28a.4.4,0,0,0,0-.57H8L4.85,6.57a.4.4,0,0,1,0-.57h0L6,4.86a.42.42,0,0,1,.57,0L9.7,8a.4.4,0,0,0,.57,0h0l3.14-3.13a.42.42,0,0,1,.57,0Z"/></svg>