<svg id="Слой_1" data-name="Слой 1" xmlns="http://www.w3.org/2000/svg" viewBox="0 0 27 15"><defs><style>.cls-1{fill:#fff;}</style></defs><title>2Монтажная область 1</title><path class="cls-1" d="M26.51,13.55l-.09-.17a13.5,13.5,0,0,0-2.62-3,14,14,0,0,1-1.1-1.12,1,1,0,0,1-.22-1.19,10.52,10.52,0,0,1,1.23-1.79l.89-1.17q2.36-3.15,2-4L26.51,1a.81.81,0,0,0-.4-.23,2.17,2.17,0,0,0-.88,0H21.29a.61.61,0,0,0-.27,0h-.31a.71.71,0,0,0-.15.15,1,1,0,0,0-.14.24A22.28,22.28,0,0,1,19,4.19c-.33.56-.64,1-.93,1.46a7.12,7.12,0,0,1-.72.92,3.87,3.87,0,0,1-.52.47c-.15.12-.27.17-.35.15l-.23-.05a.92.92,0,0,1-.32-.33,1.7,1.7,0,0,1-.16-.53V1.61a3.21,3.21,0,0,0,0-.62,1.81,1.81,0,0,0-.14-.45A.74.74,0,0,0,15.3.21,1.83,1.83,0,0,0,14.84,0,9.43,9.43,0,0,0,13,0,9,9,0,0,0,9.73.33,2.15,2.15,0,0,0,9.2.74C9,1,9,1.06,9.13,1.08a1.65,1.65,0,0,1,1.17.59l.08.16a2.4,2.4,0,0,1,.19.63,5.8,5.8,0,0,1,.12,1,9.77,9.77,0,0,1,0,1.71c0,.48-.09.85-.13,1.11a2.34,2.34,0,0,1-.18.64,2.11,2.11,0,0,1-.16.3l-.07.07a.94.94,0,0,1-.37.07.84.84,0,0,1-.47-.19,3.42,3.42,0,0,1-.56-.52,6.89,6.89,0,0,1-.66-.94A13.83,13.83,0,0,1,7.32,4.3L7.1,3.9c-.13-.25-.32-.62-.56-1.11s-.45-1-.63-1.44A.81.81,0,0,0,5.58.91H5.51A.92.92,0,0,0,5.29.74,1.58,1.58,0,0,0,5,.65L1.23.68A1,1,0,0,0,.45,1L.35,1a.41.41,0,0,0,0,.22,1.17,1.17,0,0,0,.08.37C1,2.9,1.58,4.15,2.22,5.34S3.42,7.5,3.89,8.23s1,1.42,1.49,2.07.85,1.07,1,1.25l.37.41.34.33a8.57,8.57,0,0,0,1,.79,14.66,14.66,0,0,0,1.41.9,7.64,7.64,0,0,0,1.8.73,6.18,6.18,0,0,0,2,.22h1.58a1.07,1.07,0,0,0,.72-.3l0-.07a.87.87,0,0,0,.1-.25,1.21,1.21,0,0,0,0-.38,4.61,4.61,0,0,1,.09-1,3,3,0,0,1,.24-.72,1.57,1.57,0,0,1,.29-.4,1.1,1.1,0,0,1,.23-.2h.11a.86.86,0,0,1,.77.21,4.26,4.26,0,0,1,.84.8q.39.46.93,1a7,7,0,0,0,1,.88l.27.16a3.23,3.23,0,0,0,.72.3A1.5,1.5,0,0,0,22,15l3.5,0a1.62,1.62,0,0,0,.81-.17.72.72,0,0,0,.34-.37,1.24,1.24,0,0,0,0-.47,1.61,1.61,0,0,0-.1-.36Z"/></svg>