<svg id="Слой_1" data-name="Слой 1" xmlns="http://www.w3.org/2000/svg" viewBox="0 0 20 20"><defs><style>.cls-1{fill:#fff;}</style></defs><title>2Монтажная область 1</title><path class="cls-1" d="M18,0H2A2,2,0,0,0,0,2V18a2,2,0,0,0,2,2H18a2,2,0,0,0,2-2V2A2,2,0,0,0,18,0ZM10,6a4,4,0,1,1-4,4A4,4,0,0,1,10,6ZM2.5,18a.47.47,0,0,1-.5-.44V9H4.1A3.37,3.37,0,0,0,4,10a6,6,0,0,0,12,0,3.37,3.37,0,0,0-.1-1H18v8.5a.47.47,0,0,1-.44.5H2.5ZM18,4.5a.47.47,0,0,1-.44.5H15.5a.47.47,0,0,1-.5-.44V2.5a.47.47,0,0,1,.44-.5H17.5a.47.47,0,0,1,.5.44V4.5Z"/></svg>